<mxfile host="65bd71144e">
    <diagram id="svSEaXq6_SZsIZfI6RL0" name="Page-1">
        <mxGraphModel dx="1798" dy="1364" grid="1" gridSize="10" guides="1" tooltips="1" connect="1" arrows="1" fold="1" page="1" pageScale="1" pageWidth="850" pageHeight="1100" math="0" shadow="0">
            <root>
                <mxCell id="0"/>
                <mxCell id="1" parent="0"/>
                <mxCell id="45" value="User" style="shape=umlLifeline;participant=umlActor;perimeter=lifelinePerimeter;whiteSpace=wrap;html=1;container=1;collapsible=0;recursiveResize=0;verticalAlign=top;spacingTop=36;outlineConnect=0;" parent="1" vertex="1">
                    <mxGeometry x="110" y="120" width="20" height="1080" as="geometry"/>
                </mxCell>
                <mxCell id="47" value="" style="html=1;points=[];perimeter=orthogonalPerimeter;" parent="45" vertex="1">
                    <mxGeometry x="5" y="70" width="10" height="1010" as="geometry"/>
                </mxCell>
                <mxCell id="104" value="Proceed to checkout" style="edgeStyle=orthogonalEdgeStyle;html=1;align=left;spacingLeft=2;endArrow=block;rounded=0;entryX=1;entryY=0;" edge="1" parent="45">
                    <mxGeometry relative="1" as="geometry">
                        <mxPoint x="15" y="140" as="sourcePoint"/>
                        <Array as="points">
                            <mxPoint x="40" y="140"/>
                            <mxPoint x="40" y="160"/>
                        </Array>
                        <mxPoint x="15" y="160" as="targetPoint"/>
                    </mxGeometry>
                </mxCell>
                <mxCell id="131" value="View Available Product" style="edgeStyle=orthogonalEdgeStyle;html=1;align=left;spacingLeft=2;endArrow=block;rounded=0;entryX=0.989;entryY=0.93;entryDx=0;entryDy=0;entryPerimeter=0;exitX=0.878;exitY=0.909;exitDx=0;exitDy=0;exitPerimeter=0;" edge="1" parent="45" source="47" target="47">
                    <mxGeometry x="0.0338" y="10" relative="1" as="geometry">
                        <mxPoint x="20" y="990" as="sourcePoint"/>
                        <Array as="points">
                            <mxPoint x="14" y="990"/>
                            <mxPoint x="60" y="990"/>
                            <mxPoint x="60" y="1009"/>
                        </Array>
                        <mxPoint x="20.34999999999991" y="1009.6400000000001" as="targetPoint"/>
                        <mxPoint y="-1" as="offset"/>
                    </mxGeometry>
                </mxCell>
                <mxCell id="49" value="KTDI Minimart Online System" style="shape=umlLifeline;perimeter=lifelinePerimeter;whiteSpace=wrap;html=1;container=1;collapsible=0;recursiveResize=0;outlineConnect=0;" parent="1" vertex="1">
                    <mxGeometry x="740" y="120" width="100" height="1160" as="geometry"/>
                </mxCell>
                <mxCell id="56" value="" style="html=1;points=[];perimeter=orthogonalPerimeter;" parent="49" vertex="1">
                    <mxGeometry x="45" y="270" width="10" height="400" as="geometry"/>
                </mxCell>
                <mxCell id="136" style="edgeStyle=none;html=1;" edge="1" parent="49" source="135" target="49">
                    <mxGeometry relative="1" as="geometry"/>
                </mxCell>
                <mxCell id="135" value="" style="html=1;points=[];perimeter=orthogonalPerimeter;" vertex="1" parent="49">
                    <mxGeometry x="45" y="920" width="10" height="170" as="geometry"/>
                </mxCell>
                <mxCell id="94" value="Request to edit/update product" style="html=1;verticalAlign=bottom;endArrow=block;" parent="1" source="45" edge="1" target="49">
                    <mxGeometry width="80" relative="1" as="geometry">
                        <mxPoint x="130" y="730" as="sourcePoint"/>
                        <mxPoint x="500" y="730" as="targetPoint"/>
                        <Array as="points">
                            <mxPoint x="280.5" y="730"/>
                            <mxPoint x="420.5" y="730"/>
                        </Array>
                    </mxGeometry>
                </mxCell>
                <mxCell id="99" value="Administrator&amp;nbsp;" style="shape=umlLifeline;participant=umlActor;perimeter=lifelinePerimeter;whiteSpace=wrap;html=1;container=1;collapsible=0;recursiveResize=0;verticalAlign=top;spacingTop=36;outlineConnect=0;" vertex="1" parent="1">
                    <mxGeometry x="330" y="120" width="20" height="1160" as="geometry"/>
                </mxCell>
                <mxCell id="100" value="" style="html=1;points=[];perimeter=orthogonalPerimeter;" vertex="1" parent="99">
                    <mxGeometry x="5" y="70" width="10" height="470" as="geometry"/>
                </mxCell>
                <mxCell id="108" value="Add new product" style="edgeStyle=orthogonalEdgeStyle;html=1;align=left;spacingLeft=2;endArrow=block;rounded=0;exitX=1.033;exitY=0.235;exitDx=0;exitDy=0;exitPerimeter=0;" edge="1" parent="99" source="100">
                    <mxGeometry x="0.4882" y="15" relative="1" as="geometry">
                        <mxPoint x="20" y="260" as="sourcePoint"/>
                        <Array as="points">
                            <mxPoint x="45" y="260"/>
                            <mxPoint x="45" y="281"/>
                        </Array>
                        <mxPoint x="15" y="281" as="targetPoint"/>
                        <mxPoint as="offset"/>
                    </mxGeometry>
                </mxCell>
                <mxCell id="109" value="Provide product details" style="edgeStyle=orthogonalEdgeStyle;html=1;align=left;spacingLeft=2;endArrow=block;rounded=0;exitX=1.058;exitY=0.284;exitDx=0;exitDy=0;exitPerimeter=0;" edge="1" parent="99" source="100">
                    <mxGeometry x="0.5542" y="15" relative="1" as="geometry">
                        <mxPoint x="20" y="300" as="sourcePoint"/>
                        <Array as="points">
                            <mxPoint x="45" y="300"/>
                            <mxPoint x="45" y="320"/>
                        </Array>
                        <mxPoint x="16" y="320" as="targetPoint"/>
                        <mxPoint as="offset"/>
                    </mxGeometry>
                </mxCell>
                <mxCell id="116" value="Provide info for further info" style="html=1;verticalAlign=bottom;endArrow=open;dashed=1;endSize=8;exitX=0.009;exitY=0.898;exitDx=0;exitDy=0;exitPerimeter=0;" edge="1" parent="99">
                    <mxGeometry x="0.0018" relative="1" as="geometry">
                        <mxPoint x="215.08999999999992" y="500.0000000000001" as="sourcePoint"/>
                        <mxPoint x="10" y="500" as="targetPoint"/>
                        <mxPoint as="offset"/>
                    </mxGeometry>
                </mxCell>
                <mxCell id="118" value="" style="html=1;points=[];perimeter=orthogonalPerimeter;" vertex="1" parent="99">
                    <mxGeometry x="5" y="640" width="10" height="80" as="geometry"/>
                </mxCell>
                <mxCell id="119" value="edit/update product info" style="edgeStyle=orthogonalEdgeStyle;html=1;align=left;spacingLeft=2;endArrow=block;rounded=0;exitX=0.989;exitY=0.254;exitDx=0;exitDy=0;exitPerimeter=0;entryX=1.1;entryY=0.49;entryDx=0;entryDy=0;entryPerimeter=0;" edge="1" parent="99" source="118" target="118">
                    <mxGeometry x="0.0159" y="15" relative="1" as="geometry">
                        <mxPoint x="20" y="660" as="sourcePoint"/>
                        <Array as="points">
                            <mxPoint x="55" y="660"/>
                            <mxPoint x="55" y="679"/>
                        </Array>
                        <mxPoint x="20" y="680" as="targetPoint"/>
                        <mxPoint as="offset"/>
                    </mxGeometry>
                </mxCell>
                <mxCell id="128" value="" style="html=1;points=[];perimeter=orthogonalPerimeter;" vertex="1" parent="99">
                    <mxGeometry x="5" y="890" width="10" height="80" as="geometry"/>
                </mxCell>
                <mxCell id="130" value="Remove product from system" style="edgeStyle=orthogonalEdgeStyle;html=1;align=left;spacingLeft=2;endArrow=block;rounded=0;entryX=0.994;entryY=0.865;entryDx=0;entryDy=0;entryPerimeter=0;exitX=1.112;exitY=0.615;exitDx=0;exitDy=0;exitPerimeter=0;" edge="1" parent="99" source="128" target="128">
                    <mxGeometry x="0.0046" y="10" relative="1" as="geometry">
                        <mxPoint x="20" y="940" as="sourcePoint"/>
                        <Array as="points">
                            <mxPoint x="60" y="939"/>
                            <mxPoint x="60" y="959"/>
                        </Array>
                        <mxPoint x="20.34999999999991" y="959.6400000000001" as="targetPoint"/>
                        <mxPoint as="offset"/>
                    </mxGeometry>
                </mxCell>
                <mxCell id="101" value="Assistant" style="shape=umlLifeline;participant=umlActor;perimeter=lifelinePerimeter;whiteSpace=wrap;html=1;container=1;collapsible=0;recursiveResize=0;verticalAlign=top;spacingTop=36;outlineConnect=0;" vertex="1" parent="1">
                    <mxGeometry x="550" y="120" width="20" height="1160" as="geometry"/>
                </mxCell>
                <mxCell id="102" value="" style="html=1;points=[];perimeter=orthogonalPerimeter;" vertex="1" parent="101">
                    <mxGeometry x="5" y="70" width="10" height="460" as="geometry"/>
                </mxCell>
                <mxCell id="113" value="Communicate with customer" style="edgeStyle=orthogonalEdgeStyle;html=1;align=left;spacingLeft=2;endArrow=block;rounded=0;" edge="1" parent="101">
                    <mxGeometry x="0.0323" y="10" relative="1" as="geometry">
                        <mxPoint x="16" y="380" as="sourcePoint"/>
                        <Array as="points">
                            <mxPoint x="14" y="380"/>
                            <mxPoint x="50" y="380"/>
                            <mxPoint x="50" y="401"/>
                        </Array>
                        <mxPoint x="16" y="401" as="targetPoint"/>
                        <mxPoint as="offset"/>
                    </mxGeometry>
                </mxCell>
                <mxCell id="114" value="Resolve customer queries" style="edgeStyle=orthogonalEdgeStyle;html=1;align=left;spacingLeft=2;endArrow=block;rounded=0;" edge="1" parent="101">
                    <mxGeometry x="0.3178" y="20" relative="1" as="geometry">
                        <mxPoint x="15" y="380" as="sourcePoint"/>
                        <Array as="points">
                            <mxPoint x="50" y="421"/>
                            <mxPoint x="50" y="439"/>
                        </Array>
                        <mxPoint x="15" y="439" as="targetPoint"/>
                        <mxPoint y="1" as="offset"/>
                    </mxGeometry>
                </mxCell>
                <mxCell id="115" value="Update ticket status" style="edgeStyle=orthogonalEdgeStyle;html=1;align=left;spacingLeft=2;endArrow=block;rounded=0;exitX=0.987;exitY=0.479;exitDx=0;exitDy=0;exitPerimeter=0;" edge="1" parent="101" source="102">
                    <mxGeometry x="0.651" y="10" relative="1" as="geometry">
                        <mxPoint x="20.000000000000114" y="459.9999999999999" as="sourcePoint"/>
                        <Array as="points">
                            <mxPoint x="15" y="460"/>
                            <mxPoint x="50" y="460"/>
                            <mxPoint x="50" y="480"/>
                        </Array>
                        <mxPoint x="15" y="480" as="targetPoint"/>
                        <mxPoint as="offset"/>
                    </mxGeometry>
                </mxCell>
                <mxCell id="122" value="" style="html=1;points=[];perimeter=orthogonalPerimeter;" vertex="1" parent="101">
                    <mxGeometry x="5" y="630" width="10" height="230" as="geometry"/>
                </mxCell>
                <mxCell id="123" value="Communicate with customer" style="edgeStyle=orthogonalEdgeStyle;html=1;align=left;spacingLeft=2;endArrow=block;rounded=0;exitX=1.035;exitY=0.389;exitDx=0;exitDy=0;exitPerimeter=0;entryX=0.958;entryY=0.485;entryDx=0;entryDy=0;entryPerimeter=0;" edge="1" parent="101" source="122" target="122">
                    <mxGeometry x="0.0323" y="10" relative="1" as="geometry">
                        <mxPoint x="22" y="720" as="sourcePoint"/>
                        <Array as="points">
                            <mxPoint x="56" y="720"/>
                            <mxPoint x="56" y="742"/>
                        </Array>
                        <mxPoint x="22" y="741.0000000000002" as="targetPoint"/>
                        <mxPoint as="offset"/>
                    </mxGeometry>
                </mxCell>
                <mxCell id="124" value="Resolve customer queries" style="edgeStyle=orthogonalEdgeStyle;html=1;align=left;spacingLeft=2;endArrow=block;rounded=0;exitX=0.881;exitY=0.612;exitDx=0;exitDy=0;exitPerimeter=0;entryX=0.958;entryY=0.692;entryDx=0;entryDy=0;entryPerimeter=0;" edge="1" parent="101" source="122" target="122">
                    <mxGeometry y="25" relative="1" as="geometry">
                        <mxPoint x="20" y="771" as="sourcePoint"/>
                        <Array as="points">
                            <mxPoint x="55" y="771"/>
                            <mxPoint x="55" y="789"/>
                        </Array>
                        <mxPoint x="20" y="789" as="targetPoint"/>
                        <mxPoint as="offset"/>
                    </mxGeometry>
                </mxCell>
                <mxCell id="125" value="Update ticket status" style="edgeStyle=orthogonalEdgeStyle;html=1;align=left;spacingLeft=2;endArrow=block;rounded=0;entryX=1.035;entryY=0.868;entryDx=0;entryDy=0;entryPerimeter=0;" edge="1" parent="101" target="122">
                    <mxGeometry x="0.0052" y="25" relative="1" as="geometry">
                        <mxPoint x="15" y="810" as="sourcePoint"/>
                        <Array as="points">
                            <mxPoint x="55" y="810"/>
                            <mxPoint x="55" y="830"/>
                        </Array>
                        <mxPoint x="20.129999999999995" y="829.6600000000001" as="targetPoint"/>
                        <mxPoint as="offset"/>
                    </mxGeometry>
                </mxCell>
                <mxCell id="138" value="" style="html=1;points=[];perimeter=orthogonalPerimeter;" vertex="1" parent="101">
                    <mxGeometry x="5" y="1060" width="10" height="80" as="geometry"/>
                </mxCell>
                <mxCell id="141" value="Monitor Product availability" style="edgeStyle=orthogonalEdgeStyle;html=1;align=left;spacingLeft=2;endArrow=block;rounded=0;exitX=0.887;exitY=0.49;exitDx=0;exitDy=0;exitPerimeter=0;" edge="1" parent="101" source="138" target="138">
                    <mxGeometry x="0.0046" y="10" relative="1" as="geometry">
                        <mxPoint x="21.180000000000064" y="1100.04" as="sourcePoint"/>
                        <Array as="points">
                            <mxPoint x="65" y="1099"/>
                            <mxPoint x="65" y="1120"/>
                        </Array>
                        <mxPoint x="20" y="1120.04" as="targetPoint"/>
                        <mxPoint as="offset"/>
                    </mxGeometry>
                </mxCell>
                <mxCell id="103" value="Review Items in Cart" style="edgeStyle=orthogonalEdgeStyle;html=1;align=left;spacingLeft=2;endArrow=block;rounded=0;entryX=1;entryY=0;" edge="1" parent="1">
                    <mxGeometry relative="1" as="geometry">
                        <mxPoint x="125" y="220" as="sourcePoint"/>
                        <Array as="points">
                            <mxPoint x="150" y="220"/>
                            <mxPoint x="150" y="240"/>
                        </Array>
                        <mxPoint x="125" y="240" as="targetPoint"/>
                    </mxGeometry>
                </mxCell>
                <mxCell id="105" value="Provide shipping and payment info" style="edgeStyle=orthogonalEdgeStyle;html=1;align=left;spacingLeft=2;endArrow=block;rounded=0;exitX=1;exitY=0.136;exitDx=0;exitDy=0;exitPerimeter=0;" edge="1" parent="1" source="47">
                    <mxGeometry x="0.0024" relative="1" as="geometry">
                        <mxPoint x="130" y="300" as="sourcePoint"/>
                        <Array as="points">
                            <mxPoint x="150" y="300"/>
                            <mxPoint x="150" y="320"/>
                        </Array>
                        <mxPoint x="125" y="320" as="targetPoint"/>
                        <mxPoint as="offset"/>
                    </mxGeometry>
                </mxCell>
                <mxCell id="106" value="" style="html=1;verticalAlign=bottom;endArrow=block;exitX=0.9;exitY=0.185;exitDx=0;exitDy=0;exitPerimeter=0;" edge="1" parent="1" source="47" target="100">
                    <mxGeometry width="80" relative="1" as="geometry">
                        <mxPoint x="130" y="340" as="sourcePoint"/>
                        <mxPoint x="340" y="340" as="targetPoint"/>
                        <mxPoint as="offset"/>
                    </mxGeometry>
                </mxCell>
                <mxCell id="107" value="Request to add product" style="text;html=1;align=center;verticalAlign=middle;resizable=0;points=[];autosize=1;strokeColor=none;fillColor=none;" vertex="1" parent="1">
                    <mxGeometry x="140" y="350" width="150" height="30" as="geometry"/>
                </mxCell>
                <mxCell id="112" value="Assign customer support request" style="html=1;verticalAlign=bottom;endArrow=block;exitX=0.982;exitY=0.334;exitDx=0;exitDy=0;exitPerimeter=0;entryX=0.1;entryY=0.341;entryDx=0;entryDy=0;entryPerimeter=0;" edge="1" parent="1" source="100" target="102">
                    <mxGeometry x="0.0052" width="80" relative="1" as="geometry">
                        <mxPoint x="434.99999999999994" y="460.33999999999986" as="sourcePoint"/>
                        <mxPoint x="540" y="347" as="targetPoint"/>
                        <mxPoint as="offset"/>
                    </mxGeometry>
                </mxCell>
                <mxCell id="121" value="Assign customer support request" style="html=1;verticalAlign=bottom;endArrow=block;exitX=1.211;exitY=0.754;exitDx=0;exitDy=0;exitPerimeter=0;" edge="1" parent="1" source="118">
                    <mxGeometry x="0.0052" width="80" relative="1" as="geometry">
                        <mxPoint x="350.00000000000017" y="820.12" as="sourcePoint"/>
                        <mxPoint x="550" y="820" as="targetPoint"/>
                        <mxPoint as="offset"/>
                    </mxGeometry>
                </mxCell>
                <mxCell id="129" value="Provide info for further info" style="html=1;verticalAlign=bottom;endArrow=open;dashed=1;endSize=8;exitX=0.009;exitY=0.898;exitDx=0;exitDy=0;exitPerimeter=0;" edge="1" parent="1">
                    <mxGeometry x="0.0018" relative="1" as="geometry">
                        <mxPoint x="545.0899999999999" y="1040" as="sourcePoint"/>
                        <mxPoint x="340" y="1040" as="targetPoint"/>
                        <mxPoint as="offset"/>
                    </mxGeometry>
                </mxCell>
                <mxCell id="133" value="Notify Product Removal" style="html=1;verticalAlign=bottom;endArrow=open;dashed=1;endSize=8;exitX=-0.213;exitY=0.762;exitDx=0;exitDy=0;exitPerimeter=0;" edge="1" parent="1" source="135">
                    <mxGeometry x="0.0018" relative="1" as="geometry">
                        <mxPoint x="790" y="1160" as="sourcePoint"/>
                        <mxPoint x="122.46000000000001" y="1170" as="targetPoint"/>
                        <mxPoint as="offset"/>
                    </mxGeometry>
                </mxCell>
                <mxCell id="140" value="" style="endArrow=none;dashed=1;html=1;dashPattern=1 3;strokeWidth=2;" edge="1" parent="1">
                    <mxGeometry width="50" height="50" relative="1" as="geometry">
                        <mxPoint x="119" y="1200" as="sourcePoint"/>
                        <mxPoint x="119" y="1280" as="targetPoint"/>
                    </mxGeometry>
                </mxCell>
                <mxCell id="143" value="alt" style="shape=umlFrame;whiteSpace=wrap;html=1;width=30;height=20;boundedLbl=1;verticalAlign=middle;align=left;spacingLeft=5;" vertex="1" parent="1">
                    <mxGeometry x="80" y="180" width="240" height="150" as="geometry"/>
                </mxCell>
                <mxCell id="145" value="alt" style="shape=umlFrame;whiteSpace=wrap;html=1;width=50;height=15;boundedLbl=1;verticalAlign=middle;align=left;spacingLeft=5;" vertex="1" parent="1">
                    <mxGeometry x="340" y="370" width="190" height="100" as="geometry"/>
                </mxCell>
                <mxCell id="147" value="alt" style="shape=umlFrame;whiteSpace=wrap;html=1;width=40;height=20;boundedLbl=1;verticalAlign=middle;align=left;spacingLeft=5;" vertex="1" parent="1">
                    <mxGeometry x="500" y="500" width="270" height="100" as="geometry"/>
                </mxCell>
                <mxCell id="148" value="alt" style="shape=umlFrame;whiteSpace=wrap;html=1;width=40;height=20;boundedLbl=1;verticalAlign=middle;align=left;spacingLeft=5;" vertex="1" parent="1">
                    <mxGeometry x="490" y="840" width="280" height="130" as="geometry"/>
                </mxCell>
                <mxCell id="150" value="UC007:Sequence Diagram" style="shape=umlFrame;whiteSpace=wrap;html=1;width=120;height=30;boundedLbl=1;verticalAlign=middle;align=left;spacingLeft=5;" vertex="1" parent="1">
                    <mxGeometry x="20" y="90" width="880" height="1220" as="geometry"/>
                </mxCell>
            </root>
        </mxGraphModel>
    </diagram>
</mxfile>